<mxfile host="app.diagrams.net" modified="2024-07-11T06:53:40.113Z" agent="Mozilla/5.0 (Macintosh; Intel Mac OS X 10_15_7) AppleWebKit/537.36 (KHTML, like Gecko) Chrome/126.0.0.0 Safari/537.36" version="24.6.4" etag="hvXdbD6aFkr-q1Q1ep0V" type="github">
  <diagram name="Page-1" id="RaO9DUnJqUv6JhADdVAz">
    <mxGraphModel>
      <root>
        <mxCell id="0" />
        <mxCell id="1" parent="0" />
      </root>
    </mxGraphModel>
  </diagram>
</mxfile>
